<?xml version='1.0' encoding='iso-8859-1'?>
<!DOCTYPE svg PUBLIC '-//W3C//DTD SVG 1.1//EN' 'http://www.w3.org/Graphics/SVG/1.1/DTD/svg11.dtd'>
<!-- Uploaded to: SVG Repo, www.svgrepo.com, Generator: SVG Repo Mixer Tools -->
<svg fill="#000000" height="800px" width="800px" version="1.1" xmlns="http://www.w3.org/2000/svg" viewBox="0 0 305.762 305.762" xmlns:xlink="http://www.w3.org/1999/xlink" enable-background="new 0 0 305.762 305.762">
  <g>
    <circle cx="83.946" cy="25.907" r="25.907"/>
    <path d="m237.137,160.317c1.943,0.298 3.94-0.122 5.523-1.162l5.563-3.656c0.237-0.155 0.534-0.22 0.825-0.179l3.676,.514c1.215,0.17 2.46,0.062 3.614-0.314l14.11-4.597c2.827-0.921 4.704-3.301 4.704-5.963v-13.661c0-3.032-2.458-5.49-5.49-5.49l-104.651-.187c-4.643,0-8.997,1.254-12.751,3.431 3.027,2.016 5.601,4.68 7.506,7.903 1.145,1.937 1.999,3.988 2.572,6.103 0.842-0.28 1.739-0.437 2.673-0.437h3.642v16.995h-3.642c-1.327,0-2.579-0.314-3.698-0.859-2.286,5.544-6.505,10.001-11.769,12.613 4.294,3.287 9.655,5.246 15.468,5.246h20.642v-0.096h6.223l19.175-6.247c1.102-0.359 2.047-1.017 2.7-1.879l4.672-6.17c0.32-0.422 0.954-0.554 1.453-0.303l4.429,2.232c1.283,0.646 2.896,0.456 3.942-0.466l4.576-4.033 4.313,.662z"/>
    <path d="m256.779,184.025c-14.512,0-26.276,5.677-26.276,12.679v96.379c0,7.002 11.764,12.679 26.276,12.679 14.512,0 26.276-5.676 26.276-12.679v-96.379c0-7.002-11.764-12.679-26.276-12.679z"/>
    <path d="m141.787,137.317l-41.877-10.764-15.628-44.899 23.05,34.417 9.584,2.463v-37.186c0-11.146-7.835-20.182-17.501-20.182h-31.209c-9.665,0-17.501,9.036-17.501,20.182v98.32l-1.87,44.715-24.993,60.661c-3.155,7.659 0.495,16.427 8.155,19.583 1.869,0.771 3.805,1.135 5.708,1.135 5.897,0 11.489-3.5 13.875-9.29l26-63.105c0.666-1.617 1.045-3.339 1.118-5.087l1.644-39.276c0.096-2.296 1.985-4.107 4.283-4.107 1.798,0 3.405,1.122 4.024,2.81l12.699,34.621-13.835,65.324c-1.716,8.104 3.463,16.065 11.567,17.782 1.048,0.222 2.092,0.328 3.122,0.328 6.936-0.001 13.165-4.839 14.66-11.896l14.729-69.546c0.584-2.758 0.379-5.625-0.592-8.273l-14.083-38.396v-8.525l-32.708-8.407c-10.774-2.769-16.999-12.239-17.641-18.37l-5.322-50.83 17.256,49.58c1.308,3.756 4.462,6.91 8.694,7.998l48.369,12.432c6.367,1.637 12.83-1.936 14.926-8.022 2.387-6.928-1.648-14.377-8.703-16.19z"/>
  </g>
</svg>